<svg id="icon-more_critere" xmlns="http://www.w3.org/2000/svg" width="40" height="40" viewBox="0 0 40 40"><path d="M29.09,14.7a10.57,10.57,0,0,1,0,10.54,10.46,10.46,0,0,1-3.82,3.82,10.57,10.57,0,0,1-10.54,0,10.45,10.45,0,0,1-3.82-3.82,10.56,10.56,0,0,1,0-10.54,10.44,10.44,0,0,1,3.82-3.82,10.57,10.57,0,0,1,10.54,0A10.45,10.45,0,0,1,29.09,14.7Zm-3,6.15V19.1a.89.89,0,0,0-.88-.87h-3.5v-3.5a.89.89,0,0,0-.88-.87H19.13a.89.89,0,0,0-.88.87v3.5h-3.5a.89.89,0,0,0-.87.87v1.75a.89.89,0,0,0,.87.88h3.5v3.5a.89.89,0,0,0,.88.88h1.75a.89.89,0,0,0,.88-.88v-3.5h3.5a.89.89,0,0,0,.88-.88Z" style="fill:#45586d"/></svg>