<svg id="icon-importance_critere" xmlns="http://www.w3.org/2000/svg" width="40" height="40" viewBox="0 0 40 40"><path d="M32,11.48v3.43a.87.87,0,0,1-.86.86H8.86A.87.87,0,0,1,8,14.91V11.48a.87.87,0,0,1,.86-.86H31.14a.87.87,0,0,1,.86.86Zm0,6.86v3.43a.87.87,0,0,1-.86.86H8.86A.87.87,0,0,1,8,21.76V18.33a.87.87,0,0,1,.86-.86H31.14a.87.87,0,0,1,.86.86Zm0,6.86v3.43a.87.87,0,0,1-.86.86H8.86A.87.87,0,0,1,8,28.62V25.19a.87.87,0,0,1,.86-.86H31.14a.87.87,0,0,1,.86.86ZM16.57,20.91H30.29V19.19H16.57Zm5.14,6.86h8.57V26H21.71ZM25.14,14h5.14V12.33H25.14Z" style="fill:#45586d"/></svg>