<svg id="icon-close-groupe_critere" xmlns="http://www.w3.org/2000/svg" width="11" height="11" viewBox="0 0 11 11"><path d="M11,8.85a.86.86,0,0,1-.26.63L9.48,10.74a.89.89,0,0,1-1.26,0L5.5,8,2.78,10.74a.86.86,0,0,1-.63.26.86.86,0,0,1-.63-.26L.26,9.48a.89.89,0,0,1,0-1.26L3,5.5.26,2.78A.86.86,0,0,1,0,2.15a.86.86,0,0,1,.26-.63L1.52.26A.86.86,0,0,1,2.15,0a.86.86,0,0,1,.63.26L5.5,3,8.22.26a.89.89,0,0,1,1.26,0l1.26,1.26a.86.86,0,0,1,.26.63.86.86,0,0,1-.26.63L8,5.5l2.72,2.72A.85.85,0,0,1,11,8.85Z" style="fill:#fff"/></svg>