<svg id="icon-critere_none" xmlns="http://www.w3.org/2000/svg" width="11" height="11" viewBox="0 0 11 11"><path d="M10.26,2.74A5.38,5.38,0,0,1,11,5.5a5.38,5.38,0,0,1-.74,2.76,5.48,5.48,0,0,1-2,2A5.38,5.38,0,0,1,5.5,11a5.38,5.38,0,0,1-2.76-.74,5.47,5.47,0,0,1-2-2A5.38,5.38,0,0,1,0,5.5,5.38,5.38,0,0,1,.74,2.74a5.47,5.47,0,0,1,2-2A5.38,5.38,0,0,1,5.5,0,5.38,5.38,0,0,1,8.26.74,5.48,5.48,0,0,1,10.26,2.74Zm-2,4.38a.44.44,0,0,0-.14-.32L6.8,5.5l1.3-1.3a.44.44,0,0,0,.14-.32.45.45,0,0,0-.14-.33l-.64-.64a.45.45,0,0,0-.33-.14.44.44,0,0,0-.32.14L5.5,4.2,4.2,2.91a.44.44,0,0,0-.32-.14.45.45,0,0,0-.33.14l-.64.64a.45.45,0,0,0-.14.33.44.44,0,0,0,.14.32L4.2,5.5,2.91,6.8a.44.44,0,0,0-.14.32.45.45,0,0,0,.14.33l.64.64a.45.45,0,0,0,.33.14.44.44,0,0,0,.32-.14L5.5,6.8l1.3,1.3a.44.44,0,0,0,.32.14.45.45,0,0,0,.33-.14l.64-.64A.45.45,0,0,0,8.23,7.12Z" style="fill:#162e48"/></svg>