<svg id="icon-critere_ok" xmlns="http://www.w3.org/2000/svg" width="11" height="11" viewBox="0 0 11 11"><path d="M10.26,2.74A5.38,5.38,0,0,1,11,5.5a5.38,5.38,0,0,1-.74,2.76,5.48,5.48,0,0,1-2,2A5.38,5.38,0,0,1,5.5,11a5.38,5.38,0,0,1-2.76-.74,5.47,5.47,0,0,1-2-2A5.38,5.38,0,0,1,0,5.5,5.38,5.38,0,0,1,.74,2.74a5.47,5.47,0,0,1,2-2A5.38,5.38,0,0,1,5.5,0,5.38,5.38,0,0,1,8.26.74,5.48,5.48,0,0,1,10.26,2.74ZM9.2,4.34A.45.45,0,0,0,9.07,4l-.65-.64a.45.45,0,0,0-.64,0L4.85,6.28,3.23,4.66a.45.45,0,0,0-.64,0l-.65.64a.45.45,0,0,0-.13.33A.44.44,0,0,0,1.93,6L4.53,8.55a.44.44,0,0,0,.32.14.45.45,0,0,0,.33-.14L9.07,4.66A.44.44,0,0,0,9.2,4.34Z" style="fill:#fff"/></svg>