<svg id="icon-tuto" xmlns="http://www.w3.org/2000/svg" width="44" height="44" viewBox="0 0 44 44"><path d="M25.46,21.37v2.58a.46.46,0,0,1-.1.27.33.33,0,0,1-.22.15L23,24.7a6.89,6.89,0,0,1-.45,1.06q.47.67,1.26,1.6a.54.54,0,0,1,.1.28.36.36,0,0,1-.1.26,14.69,14.69,0,0,1-1.15,1.25q-.83.83-1.09.83a.5.5,0,0,1-.29-.1l-1.6-1.26a6.32,6.32,0,0,1-1.07.43,16.47,16.47,0,0,1-.32,2.16.41.41,0,0,1-.42.33H15.24a.42.42,0,0,1-.28-.1.36.36,0,0,1-.14-.24l-.32-2.13a6.1,6.1,0,0,1-1-.43l-1.65,1.24a.37.37,0,0,1-.28.1.46.46,0,0,1-.29-.11q-2-1.86-2-2.23a.47.47,0,0,1,.1-.26q.14-.2.57-.74t.66-.85a7,7,0,0,1-.49-1.14l-2.12-.33a.35.35,0,0,1-.24-.13.42.42,0,0,1-.1-.27V21.32a.46.46,0,0,1,.1-.27.33.33,0,0,1,.22-.15l2.16-.33a6.93,6.93,0,0,1,.45-1.06q-.47-.67-1.25-1.6a.53.53,0,0,1-.1-.28.41.41,0,0,1,.1-.28,11.82,11.82,0,0,1,1.14-1.24q.84-.82,1.1-.82a.5.5,0,0,1,.29.1l1.6,1.26a6.82,6.82,0,0,1,1.07-.45A16.15,16.15,0,0,1,14.82,14a.41.41,0,0,1,.42-.33h2.59a.42.42,0,0,1,.28.1.36.36,0,0,1,.14.24l.32,2.13a6.19,6.19,0,0,1,1,.43l1.65-1.24a.41.41,0,0,1,.28-.1.47.47,0,0,1,.29.11q2,1.86,2,2.23a.52.52,0,0,1-.1.26l-.59.75q-.42.53-.63.84A9.62,9.62,0,0,1,23,20.63l2.12.32a.41.41,0,0,1,.24.15A.42.42,0,0,1,25.46,21.37Zm-6.4,3.79a3.57,3.57,0,0,0-2.53-6.1A3.57,3.57,0,0,0,14,25.16a3.57,3.57,0,0,0,5.05,0ZM34.39,14.52v2q0,.22-2.08.43a4.08,4.08,0,0,1-.42.73,7.76,7.76,0,0,1,.71,1.92.12.12,0,0,1-.06.1q-1.7,1-1.73,1T30.18,20q-.53-.65-.73-.95l-.42,0-.42,0q-.2.29-.73.95t-.64.66s-.6-.33-1.73-1a.12.12,0,0,1-.06-.1,7.73,7.73,0,0,1,.71-1.92,4,4,0,0,1-.42-.73q-2.08-.21-2.08-.43v-2q0-.22,2.08-.43a3.89,3.89,0,0,1,.42-.73,7.73,7.73,0,0,1-.71-1.92.12.12,0,0,1,.06-.1l.49-.28.82-.47a3.23,3.23,0,0,1,.42-.22q.11,0,.64.65t.73.94l.42,0,.42,0a12.63,12.63,0,0,1,1.28-1.56l.08,0s.61.33,1.73,1a.12.12,0,0,1,.06.1,7.76,7.76,0,0,1-.71,1.92,3.94,3.94,0,0,1,.42.73Q34.39,14.29,34.39,14.52Zm0,14.29v2q0,.22-2.08.43a4.07,4.07,0,0,1-.42.72,7.77,7.77,0,0,1,.71,1.93.12.12,0,0,1-.06.1q-1.7,1-1.73,1t-.64-.66q-.53-.66-.73-.95l-.42,0-.42,0q-.2.29-.73.95t-.64.66s-.6-.33-1.73-1a.12.12,0,0,1-.06-.1,7.75,7.75,0,0,1,.71-1.93,4,4,0,0,1-.42-.72q-2.08-.21-2.08-.43v-2q0-.22,2.08-.43a3.86,3.86,0,0,1,.42-.73,7.73,7.73,0,0,1-.71-1.92.12.12,0,0,1,.06-.1l.49-.28.82-.47a3.29,3.29,0,0,1,.42-.22q.11,0,.64.65t.73.94l.42,0,.42,0a12.78,12.78,0,0,1,1.28-1.56l.08,0s.61.33,1.73,1a.12.12,0,0,1,.06.1,7.76,7.76,0,0,1-.71,1.92,3.91,3.91,0,0,1,.42.73Q34.39,28.58,34.39,28.8ZM30.82,15.49a1.79,1.79,0,1,0-.52,1.26A1.72,1.72,0,0,0,30.82,15.49Zm0,14.29A1.79,1.79,0,1,0,30.3,31,1.72,1.72,0,0,0,30.82,29.78Z" style="fill:#557584"/></svg>