<svg id="icon-search" xmlns="http://www.w3.org/2000/svg" width="25" height="25" viewBox="0 0 25 25"><path d="M19.93,18.51a1.16,1.16,0,0,1-1.14,1.14,1.06,1.06,0,0,1-.8-.34l-3.06-3.05a6.12,6.12,0,0,1-3.56,1.11,6.18,6.18,0,0,1-2.44-.49,6.16,6.16,0,0,1-3.35-3.35,6.27,6.27,0,0,1,0-4.88A6.16,6.16,0,0,1,8.92,5.29a6.27,6.27,0,0,1,4.88,0,6.16,6.16,0,0,1,3.35,3.35,6.18,6.18,0,0,1,.5,2.44,6.12,6.12,0,0,1-1.11,3.56l3.06,3.06A1.09,1.09,0,0,1,19.93,18.51Zm-5.75-4.6a3.85,3.85,0,0,0,1.17-2.83,4,4,0,0,0-4-4,4,4,0,0,0-4,4,4,4,0,0,0,4,4A3.85,3.85,0,0,0,14.18,13.91Z" style="fill:#fff"/></svg>