<svg id="icon-close-infos_utile" xmlns="http://www.w3.org/2000/svg" width="6" height="6" viewBox="0 0 6 6"><path d="M6,4.83a.47.47,0,0,1-.14.34l-.69.69a.49.49,0,0,1-.69,0L3,4.37,1.51,5.86A.47.47,0,0,1,1.17,6a.47.47,0,0,1-.34-.14L.14,5.17a.49.49,0,0,1,0-.69L1.63,3,.14,1.52A.47.47,0,0,1,0,1.17.47.47,0,0,1,.14.83L.83.14A.47.47,0,0,1,1.17,0a.47.47,0,0,1,.34.14L3,1.63,4.48.14a.49.49,0,0,1,.69,0l.69.69A.47.47,0,0,1,6,1.17a.47.47,0,0,1-.14.34L4.37,3,5.86,4.48A.47.47,0,0,1,6,4.83Z" style="fill:#fff"/></svg>