<svg id="btn-tuto" xmlns="http://www.w3.org/2000/svg" width="17" height="17" viewBox="0 0 17 17"><circle cx="8.5" cy="8.5" r="8.5" style="fill:#162e48"/><rect x="8" y="12" width="1" height="1" style="fill:#fff"/><polygon points="8 10 8 11 9 11 9 10 9 9 8 9 8 10" style="fill:#fff"/><rect x="9" y="8" width="1" height="1" style="fill:#fff"/><polygon points="10 5 10 6 10 7 10 8 11 8 11 7 11 6 11 5 10 5" style="fill:#fff"/><polygon points="9 4 8 4 7 4 7 5 8 5 9 5 10 5 10 4 9 4" style="fill:#fff"/><polygon points="6 6 6 7 7 7 7 6 7 5 6 5 6 6" style="fill:#fff"/></svg>