<svg id="logo-noomen" xmlns="http://www.w3.org/2000/svg" width="100" height="25" viewBox="0 0 100 25"><path d="M14,16.5H10.4V8a5.79,5.79,0,0,0-.8-3.37A3,3,0,0,0,7,3.56,4,4,0,0,0,3.61,5.09V16.46H.08V.79H3.29L3.41,2a6.22,6.22,0,0,1,4-1.45C11.77.51,14,3,14,8Z" style="fill:#faf9f8"/><path d="M68.07,16.5H64.5V7.82a5.58,5.58,0,0,0-.72-3.21,2.73,2.73,0,0,0-2.41-1C59.12,3.6,58,4.77,58,7.06v9.48H54.38V8a5.71,5.71,0,0,0-.8-3.49,3.07,3.07,0,0,0-2.53-1,3.79,3.79,0,0,0-3.29,1.53V16.5H44.18V.83h2.89l.24,1.37A6.27,6.27,0,0,1,51.53.55a5.54,5.54,0,0,1,4.94,2.61,4.65,4.65,0,0,1,2-1.85A6.76,6.76,0,0,1,61.81.55a5.58,5.58,0,0,1,4.62,1.93A8.22,8.22,0,0,1,68,7.82V16.5Z" style="fill:#faf9f8"/><path d="M99.48,16.5H95.9V8a5.79,5.79,0,0,0-.8-3.37,3,3,0,0,0-2.61-1.08,4,4,0,0,0-3.37,1.53V16.46H85.54V.79h3.21L88.88,2a6.22,6.22,0,0,1,4-1.45C97.23.51,99.44,3,99.44,8V16.5Z" style="fill:#faf9f8"/><path d="M0,21.36H1.89v.32H.4v.84H1.65v.32H.4v1H1.89v.36H0Z" style="fill:#faf9f8"/><path d="M3.33,21.36h.48L5,23.77H5l0-.76V21.36h.4v2.85H4.86L3.69,21.8h0l0,.72v1.69h-.4Z" style="fill:#faf9f8"/><path d="M7.07,21.36h.4v2.53H9.08v.32h-2V21.36Z" style="fill:#faf9f8"/><path d="M10.72,23.89h.44V21.72h-.44V21.4H12v.32h-.44v2.17H12v.32H10.72Z" style="fill:#faf9f8"/><path d="M15.86,23.93a1.61,1.61,0,0,1-.92.32c-.88,0-1.16-.76-1.16-1.49s.28-1.49,1.12-1.49a1.17,1.17,0,0,1,1,.56l-.32.2a.78.78,0,0,0-.68-.4c-.6,0-.72.72-.72,1.12s.12,1.12.72,1.12a.92.92,0,0,0,.56-.16V23H14.7v-.32h1.12v1.24Z" style="fill:#faf9f8"/><path d="M17.35,21.36h.4v1.16H19V21.36h.4v2.85H19V22.88h-1.2v1.33h-.4Z" style="fill:#faf9f8"/><path d="M21.65,21.68H20.8v-.32h2v.32H22v2.53h-.4Z" style="fill:#faf9f8"/><path d="M27,23.28c.08.36.24.6.68.6s.56-.16.56-.48-.32-.44-.6-.56c-.44-.16-.84-.28-.84-.8a.8.8,0,0,1,.88-.76.88.88,0,0,1,.92.72l-.36.12a.56.56,0,0,0-.56-.48c-.24,0-.48.12-.48.36s.16.36.4.44l.64.28a.71.71,0,0,1,.4.68.86.86,0,0,1-1,.84.94.94,0,0,1-1-.84Z" style="fill:#faf9f8"/><path d="M30.32,21.36h1.89v.32H30.72v.84H32v.32H30.72v1h1.49v.36H30.32Z" style="fill:#faf9f8"/><path d="M34.14,23.4l-.28.84-.4-.12,1-2.77h.48l1,2.77-.4.12-.28-.84Zm.52-1.61-.44,1.33h.84Z" style="fill:#faf9f8"/><path d="M37.27,21.36h1c.52,0,.92.24.92.76a.86.86,0,0,1-.6.8l.76,1.16-.32.2L38.31,23h-.56v1.2h-.4V21.36Zm.92,1.29c.36,0,.64-.2.64-.52s-.16-.44-.52-.44h-.64v1Z" style="fill:#faf9f8"/><path d="M42.73,23.64a1.13,1.13,0,0,1-1,.6c-.88,0-1.16-.76-1.16-1.49,0-1.12.64-1.49,1.12-1.49a1,1,0,0,1,1,.6l-.36.16a.7.7,0,0,0-.6-.44c-.6,0-.72.68-.72,1.12s.12,1.12.72,1.12c.36,0,.52-.2.72-.44Z" style="fill:#faf9f8"/><path d="M44.18,21.36h.4v1.16h1.2V21.36h.4v2.85h-.4V22.88h-1.2v1.33h-.4Z" style="fill:#faf9f8"/><path d="M49,23.4v.24a1,1,0,0,1-.64.88l-.16-.32a.52.52,0,0,0,.24-.48V23.4Z" style="fill:#faf9f8"/><path d="M53.49,21.36h.4v1.16h1.2V21.36h.4v2.85h-.4V22.88H53.9v1.33h-.4Z" style="fill:#faf9f8"/><path d="M57.35,23.89h.44V21.72h-.44V21.4h1.24v.32h-.44v2.17h.44v.32H57.35Z" style="fill:#faf9f8"/><path d="M62.53,23.93a1.61,1.61,0,0,1-.92.32c-.88,0-1.16-.76-1.16-1.49s.28-1.49,1.12-1.49a1.17,1.17,0,0,1,1,.56l-.32.2a.78.78,0,0,0-.68-.4c-.6,0-.72.72-.72,1.12s.12,1.12.72,1.12a.92.92,0,0,0,.56-.16V23h-.72v-.32h1.12v1.24Z" style="fill:#faf9f8"/><path d="M64,21.36h.4v1.16h1.2V21.36H66v2.85h-.4V22.88h-1.2v1.33H64Z" style="fill:#faf9f8"/><path d="M67.71,21.36h.4v2.53h1.61v.32h-2V21.36Z" style="fill:#faf9f8"/><path d="M71.37,23.89h.44V21.72h-.44V21.4h1.24v.32h-.44v2.17h.44v.32H71.37Z" style="fill:#faf9f8"/><path d="M76.51,23.93a1.61,1.61,0,0,1-.92.32c-.88,0-1.16-.76-1.16-1.49s.28-1.49,1.12-1.49a1.17,1.17,0,0,1,1,.56l-.32.2a.78.78,0,0,0-.68-.4c-.6,0-.72.72-.72,1.12s.12,1.12.72,1.12a.92.92,0,0,0,.56-.16V23h-.72v-.32h1.12v1.24Z" style="fill:#faf9f8"/><path d="M78,21.36h.4v1.16h1.2V21.36H80v2.85h-.4V22.88h-1.2v1.33H78Z" style="fill:#faf9f8"/><path d="M82.29,21.68h-.84v-.32h2v.32h-.8v2.53h-.4Z" style="fill:#faf9f8"/><path d="M87.27,21.36h1c.84,0,1.24.32,1.24,1.41,0,.88-.16,1.45-1.24,1.45h-1v-.32h.32V21.72h-.32ZM88,23.89h.4c.52,0,.72-.28.72-1.08s-.28-1.08-.76-1.08h-.4v2.17Z" style="fill:#faf9f8"/><path d="M91.29,23.4l-.28.84-.4-.12,1-2.77H92l1,2.77-.4.12-.24-.84Zm.52-1.61-.44,1.33h.84Z" style="fill:#faf9f8"/><path d="M95.14,21.68H94.3v-.32h2v.32h-.8v2.53h-.4Z" style="fill:#faf9f8"/><path d="M98.27,23.4l-.28.84-.4-.12,1-2.77H99l1,2.77-.4.12-.28-.84Zm.52-1.61-.44,1.33h.84Z" style="fill:#faf9f8"/><path d="M83.49,4.53A6.65,6.65,0,0,0,82,2.4,6,6,0,0,0,79.88,1,7.5,7.5,0,0,0,77.15.55,7.17,7.17,0,0,0,74,1.19a6.82,6.82,0,0,0-2.37,1.73,8.23,8.23,0,0,0-1.53,2.57,9.07,9.07,0,0,0-.52,3.17,9.54,9.54,0,0,0,.56,3.25,6.9,6.9,0,0,0,1.65,2.57,7.58,7.58,0,0,0,2.65,1.73,14.75,14.75,0,0,0,3.86.28l0-3a7.7,7.7,0,0,1-3.29-.8,5,5,0,0,1-1.73-3.45h0a10.79,10.79,0,0,1,.16-2.41,3.58,3.58,0,0,1,3.78-3.25,2.84,2.84,0,0,1,2.37,1,3.5,3.5,0,0,1,.76,2.29H77.67V9.23h6.06a5.91,5.91,0,0,0,.16-1.08,6.8,6.8,0,0,0,0-.88A6,6,0,0,0,83.49,4.53Z" style="fill:#faf9f8"/><path d="M29.12,13.85a1.08,1.08,0,0,1-.28.32,7,7,0,0,1-2.45,1.69,8.32,8.32,0,0,1-3.21.6,8,8,0,0,1-3.21-.6,7,7,0,0,1-2.45-1.69,7.45,7.45,0,0,1-1.57-2.53,8.92,8.92,0,0,1-.52-3.17,8.85,8.85,0,0,1,.52-3.13A7.45,7.45,0,0,1,17.51,2.8,7,7,0,0,1,20,1.11a8.33,8.33,0,0,1,3.21-.6,8,8,0,0,1,3.17.6c.32.16.6.28.88.44a8.19,8.19,0,0,0-1.45,2.81h0a3.84,3.84,0,0,0-2.61-.92,3.76,3.76,0,0,0-3.05,1.33A5.66,5.66,0,0,0,19,8.42a5.66,5.66,0,0,0,1.08,3.65,3.67,3.67,0,0,0,3.05,1.37,3.67,3.67,0,0,0,3.05-1.37,5.43,5.43,0,0,0,1.08-3.33V8.1a9.18,9.18,0,0,1,.52-2.81,8.25,8.25,0,0,1,1.24-2.17,2.61,2.61,0,0,1,.32-.36,7,7,0,0,1,2.45-1.69,8.32,8.32,0,0,1,3.21-.6,8,8,0,0,1,3.17.6,7,7,0,0,1,2.45,1.69,7.46,7.46,0,0,1,1.57,2.53,8.86,8.86,0,0,1,.56,3.13,9.85,9.85,0,0,1-.52,3.13,7.45,7.45,0,0,1-1.57,2.53,7,7,0,0,1-2.45,1.69,8.32,8.32,0,0,1-3.21.6,8,8,0,0,1-3.21-.6l-1-.48h0a8.86,8.86,0,0,0,1.49-2.85h0a3.74,3.74,0,0,0,2.69,1A3.67,3.67,0,0,0,38.11,12,5.74,5.74,0,0,0,39.2,8.38a5.66,5.66,0,0,0-1.08-3.65A3.76,3.76,0,0,0,35.06,3.4,3.76,3.76,0,0,0,32,4.73a5.34,5.34,0,0,0-1.08,3.33V8.7a9.18,9.18,0,0,1-.52,2.81A7.61,7.61,0,0,1,29.12,13.85Z" style="fill:#faf9f8"/></svg>