<svg id="icon-map-view" xmlns="http://www.w3.org/2000/svg" width="20" height="21" viewBox="0 0 20 21"><path d="M16.86,7.07a5.63,5.63,0,0,1-.44,2.4L11.54,19.83a1.63,1.63,0,0,1-.64.7,1.73,1.73,0,0,1-1.81,0,1.54,1.54,0,0,1-.62-.7L3.59,9.47a5.63,5.63,0,0,1-.44-2.4,6.61,6.61,0,0,1,2-4.85A6.61,6.61,0,0,1,10,.21a6.6,6.6,0,0,1,4.85,2A6.6,6.6,0,0,1,16.86,7.07ZM12.42,9.5a3.3,3.3,0,0,0,1-2.42,3.3,3.3,0,0,0-1-2.42,3.3,3.3,0,0,0-2.42-1,3.3,3.3,0,0,0-2.42,1,3.31,3.31,0,0,0-1,2.42,3.31,3.31,0,0,0,1,2.42,3.3,3.3,0,0,0,2.42,1A3.3,3.3,0,0,0,12.42,9.5Z" style="fill:#fff"/></svg>