<svg id="icon-list-view" xmlns="http://www.w3.org/2000/svg" width="24" height="19" viewBox="0 0 24 19"><path d="M6.86,1.3V3.89a1.25,1.25,0,0,1-.37.92,1.24,1.24,0,0,1-.91.38H1.29A1.24,1.24,0,0,1,.38,4.8,1.25,1.25,0,0,1,0,3.89V1.3A1.25,1.25,0,0,1,.38.38,1.24,1.24,0,0,1,1.29,0H5.57a1.24,1.24,0,0,1,.91.38A1.25,1.25,0,0,1,6.86,1.3Zm0,6.91V10.8a1.25,1.25,0,0,1-.37.92,1.24,1.24,0,0,1-.91.38H1.29a1.24,1.24,0,0,1-.91-.38A1.25,1.25,0,0,1,0,10.8V8.2a1.25,1.25,0,0,1,.38-.92,1.24,1.24,0,0,1,.91-.38H5.57a1.24,1.24,0,0,1,.91.38A1.25,1.25,0,0,1,6.86,8.2Zm0,6.91V17.7a1.25,1.25,0,0,1-.37.92,1.24,1.24,0,0,1-.91.38H1.29a1.24,1.24,0,0,1-.91-.38A1.25,1.25,0,0,1,0,17.7V15.11a1.26,1.26,0,0,1,.38-.92,1.24,1.24,0,0,1,.91-.38H5.57a1.24,1.24,0,0,1,.91.38A1.26,1.26,0,0,1,6.86,15.11ZM15.43,1.3V3.89a1.25,1.25,0,0,1-.37.92,1.24,1.24,0,0,1-.91.38H9.86a1.24,1.24,0,0,1-.91-.38,1.25,1.25,0,0,1-.37-.92V1.3A1.25,1.25,0,0,1,8.95.38,1.24,1.24,0,0,1,9.86,0h4.29a1.24,1.24,0,0,1,.91.38A1.25,1.25,0,0,1,15.43,1.3Zm0,6.91V10.8a1.25,1.25,0,0,1-.37.92,1.24,1.24,0,0,1-.91.38H9.86a1.24,1.24,0,0,1-.91-.38,1.25,1.25,0,0,1-.37-.92V8.2a1.25,1.25,0,0,1,.38-.92,1.24,1.24,0,0,1,.91-.38h4.29a1.24,1.24,0,0,1,.91.38A1.25,1.25,0,0,1,15.43,8.2Zm0,6.91V17.7a1.25,1.25,0,0,1-.37.92,1.24,1.24,0,0,1-.91.38H9.86a1.24,1.24,0,0,1-.91-.38,1.25,1.25,0,0,1-.37-.92V15.11a1.26,1.26,0,0,1,.38-.92,1.24,1.24,0,0,1,.91-.38h4.29a1.24,1.24,0,0,1,.91.38A1.26,1.26,0,0,1,15.43,15.11ZM24,1.3V3.89a1.25,1.25,0,0,1-.37.92,1.24,1.24,0,0,1-.91.38H18.43a1.24,1.24,0,0,1-.91-.38,1.25,1.25,0,0,1-.37-.92V1.3a1.25,1.25,0,0,1,.38-.92A1.24,1.24,0,0,1,18.43,0h4.29a1.24,1.24,0,0,1,.91.38A1.25,1.25,0,0,1,24,1.3ZM24,8.2V10.8a1.25,1.25,0,0,1-.37.92,1.24,1.24,0,0,1-.91.38H18.43a1.24,1.24,0,0,1-.91-.38,1.25,1.25,0,0,1-.37-.92V8.2a1.25,1.25,0,0,1,.38-.92,1.24,1.24,0,0,1,.91-.38h4.29a1.24,1.24,0,0,1,.91.38A1.25,1.25,0,0,1,24,8.2Zm0,6.91V17.7a1.25,1.25,0,0,1-.37.92,1.24,1.24,0,0,1-.91.38H18.43a1.24,1.24,0,0,1-.91-.38,1.25,1.25,0,0,1-.37-.92V15.11a1.26,1.26,0,0,1,.38-.92,1.24,1.24,0,0,1,.91-.38h4.29a1.24,1.24,0,0,1,.91.38A1.26,1.26,0,0,1,24,15.11Z" style="fill:#ffffff"/></svg>